# WaveFront *.obj file (generated by Autodesk ATF)

mtllib camera_visual.mtl

g camera

v 40.000000 20.000000 10.700000
v 40.000000 15.000000 10.700000
v 39.000000 15.000000 10.700000
v 39.000000 20.000000 10.700000
v 39.000000 20.000000 11.200000
v 40.000000 20.000000 11.200000
v 39.000000 15.000000 11.200000
v 40.000000 15.000000 11.200000
vt -0.000000 -5.000000 0.000000
vt 1.000000 -5.000000 0.000000
vt -0.000000 0.000000 0.000000
vt 1.000000 0.000000 0.000000
vt 0.500000 1.000000 0.000000
vt 0.000000 1.000000 0.000000
vt 0.500000 0.000000 0.000000
vt -0.000000 0.000000 0.000000
vt 0.000000 -2.500000 0.000000
vt 0.500000 -2.500000 0.000000
vt 0.000000 2.500000 0.000000
vt 0.500000 2.500000 0.000000
vt 0.000000 0.000000 0.000000
vt 5.000000 0.000000 0.000000
vt 0.000000 1.000000 0.000000
vt 5.000000 1.000000 0.000000
vt 0.500000 0.000000 0.000000
vt 1.000000 0.000000 0.000000
vt 0.500000 1.000000 0.000000
vt 1.000000 1.000000 0.000000
vt -2.500000 0.000000 0.000000
vt 2.500000 0.000000 0.000000
vt -2.500000 0.500000 0.000000
vt 2.500000 0.500000 0.000000
vn -0.000000 -0.000000 -1.000000
vn -0.000000 -0.000000 -1.000000
vn -0.000000 -0.000000 -1.000000
vn -0.000000 -0.000000 -1.000000
vn 0.000000 1.000000 -0.000000
vn 0.000000 1.000000 -0.000000
vn 0.000000 1.000000 -0.000000
vn 0.000000 1.000000 -0.000000
vn -1.000000 0.000000 0.000000
vn -1.000000 0.000000 0.000000
vn -1.000000 0.000000 0.000000
vn -1.000000 0.000000 0.000000
vn 0.000000 0.000000 1.000000
vn 0.000000 0.000000 1.000000
vn 0.000000 0.000000 1.000000
vn 0.000000 0.000000 1.000000
vn -0.000000 -1.000000 -0.000000
vn -0.000000 -1.000000 -0.000000
vn -0.000000 -1.000000 -0.000000
vn -0.000000 -1.000000 -0.000000
vn 1.000000 0.000000 0.000000
vn 1.000000 0.000000 0.000000
vn 1.000000 0.000000 0.000000
vn 1.000000 0.000000 0.000000
usemtl Paint_-_Enamel_Glossy_(Yellow)
f 2/1/1 3/2/2 1/3/3
f 1/3/3 3/2/2 4/4/4
f 4/5/5 5/6/6 1/7/7
f 1/7/7 5/6/6 6/8/8
f 3/9/9 7/10/10 4/11/11
f 4/11/11 7/10/10 5/12/12
f 8/13/13 6/14/14 7/15/15
f 7/15/15 6/14/14 5/16/16
f 2/17/17 8/18/18 3/19/19
f 3/19/19 8/18/18 7/20/20
f 2/21/21 1/22/22 8/23/23
f 8/23/23 1/22/22 6/24/24
# 8 vertices
# 24 texture params
# 24 normals
# 12 facets

# 1 groups
