# WaveFront *.obj file (generated by Autodesk ATF)

mtllib platform_visual.mtl

g platform

v 38.000000 28.000000 16.700000
v 2.000000 28.000000 16.700000
v 2.000000 28.000000 17.200000
v 38.000000 28.000000 17.200000
v 12.000000 23.000000 16.700000
v 28.000000 23.000000 16.700000
v 28.000000 23.000000 10.500000
v 12.000000 23.000000 10.500000
v 2.000000 7.000000 16.700000
v 38.000000 7.000000 16.700000
v 38.000000 7.000000 17.200000
v 2.000000 7.000000 17.200000
v 28.000000 12.000000 16.700000
v 12.000000 12.000000 16.700000
v 12.000000 12.000000 10.500000
v 28.000000 12.000000 10.500000
v 2.000000 12.000000 16.700000
v 2.000000 12.000000 17.200000
v 38.000000 12.000000 16.700000
v 38.000000 12.000000 17.200000
vt -0.250000 -18.000000 0.000000
vt 0.250000 -18.000000 0.000000
vt -0.250000 18.000000 0.000000
vt 0.250000 18.000000 0.000000
vt 16.000000 6.200000 0.000000
vt 0.000000 6.200000 0.000000
vt 16.000000 0.000000 0.000000
vt 0.000000 0.000000 0.000000
vt 0.250000 18.000000 0.000000
vt -0.250000 18.000000 0.000000
vt 0.250000 -18.000000 0.000000
vt -0.250000 -18.000000 0.000000
vt 16.000000 6.200000 0.000000
vt 0.000000 6.200000 0.000000
vt 16.000000 0.000000 0.000000
vt 0.000000 0.000000 0.000000
vt 0.250000 10.500000 0.000000
vt -0.250000 10.500000 0.000000
vt 0.250000 -5.500000 0.000000
vt -0.250000 -5.500000 0.000000
vt -0.250000 -10.500000 0.000000
vt 0.250000 -10.500000 0.000000
vt 11.000000 6.200000 0.000000
vt 0.000000 6.200000 0.000000
vt 11.000000 0.000000 0.000000
vt 0.000000 0.000000 0.000000
vt 0.000000 -16.000000 0.000000
vt 0.000000 -26.000000 0.000000
vt 11.000000 -16.000000 0.000000
vt 16.000000 -26.000000 0.000000
vt 11.000000 0.000000 0.000000
vt 16.000000 10.000000 0.000000
vt 0.000000 10.000000 0.000000
vt -5.000000 -26.000000 0.000000
vt 0.000000 0.000000 0.000000
vt -5.000000 10.000000 0.000000
vt 0.250000 10.500000 0.000000
vt -0.250000 10.500000 0.000000
vt 0.250000 -5.500000 0.000000
vt -0.250000 -5.500000 0.000000
vt 0.250000 -10.500000 0.000000
vt -0.250000 -10.500000 0.000000
vt 11.000000 6.200000 0.000000
vt 0.000000 6.200000 0.000000
vt 11.000000 0.000000 0.000000
vt 0.000000 0.000000 0.000000
vt 18.000000 10.500000 0.000000
vt -18.000000 10.500000 0.000000
vt 18.000000 -5.500000 0.000000
vt -18.000000 -5.500000 0.000000
vt -18.000000 -10.500000 0.000000
vt 18.000000 -10.500000 0.000000
vt -8.000000 -5.500000 0.000000
vt 8.000000 -5.500000 0.000000
vt -8.000000 5.500000 0.000000
vt 8.000000 5.500000 0.000000
vn 0.000000 1.000000 0.000000
vn 0.000000 1.000000 0.000000
vn 0.000000 1.000000 0.000000
vn 0.000000 1.000000 0.000000
vn 0.000000 1.000000 -0.000000
vn 0.000000 1.000000 -0.000000
vn 0.000000 1.000000 -0.000000
vn 0.000000 1.000000 -0.000000
vn 0.000000 -1.000000 0.000000
vn 0.000000 -1.000000 0.000000
vn 0.000000 -1.000000 0.000000
vn 0.000000 -1.000000 0.000000
vn -0.000000 -1.000000 0.000000
vn -0.000000 -1.000000 0.000000
vn -0.000000 -1.000000 0.000000
vn -0.000000 -1.000000 0.000000
vn -1.000000 0.000000 0.000000
vn -1.000000 0.000000 0.000000
vn -1.000000 0.000000 0.000000
vn -1.000000 0.000000 0.000000
vn -1.000000 0.000000 0.000000
vn -1.000000 0.000000 0.000000
vn -1.000000 0.000000 0.000000
vn -1.000000 0.000000 0.000000
vn -1.000000 0.000000 0.000000
vn -1.000000 0.000000 0.000000
vn 0.000000 0.000000 -1.000000
vn 0.000000 0.000000 -1.000000
vn 0.000000 0.000000 -1.000000
vn 0.000000 0.000000 -1.000000
vn 0.000000 0.000000 -1.000000
vn 0.000000 0.000000 -1.000000
vn 0.000000 0.000000 -1.000000
vn 0.000000 0.000000 -1.000000
vn 0.000000 0.000000 -1.000000
vn 0.000000 0.000000 -1.000000
vn 1.000000 0.000000 0.000000
vn 1.000000 0.000000 0.000000
vn 1.000000 0.000000 0.000000
vn 1.000000 0.000000 0.000000
vn 1.000000 0.000000 0.000000
vn 1.000000 0.000000 0.000000
vn 1.000000 -0.000000 0.000000
vn 1.000000 -0.000000 0.000000
vn 1.000000 -0.000000 0.000000
vn 1.000000 -0.000000 0.000000
vn 0.000000 0.000000 1.000000
vn 0.000000 0.000000 1.000000
vn 0.000000 0.000000 1.000000
vn 0.000000 0.000000 1.000000
vn 0.000000 0.000000 1.000000
vn 0.000000 0.000000 1.000000
vn -0.000000 -0.000000 -1.000000
vn -0.000000 -0.000000 -1.000000
vn -0.000000 -0.000000 -1.000000
vn -0.000000 -0.000000 -1.000000
usemtl Paint_-_Enamel_Glossy_(White)
f 2/1/1 3/2/2 1/3/3
f 1/3/3 3/2/2 4/4/4
f 5/5/5 6/6/6 8/7/7
f 8/7/7 6/6/6 7/8/8
f 10/9/9 11/10/10 9/11/11
f 9/11/11 11/10/10 12/12/12
f 13/13/13 14/14/14 16/15/15
f 16/15/15 14/14/14 15/16/16
f 3/17/17 2/18/18 18/19/19
f 18/19/19 2/18/18 17/20/20
f 18/19/19 17/20/20 9/21/21
f 9/21/21 12/22/22 18/19/19
f 14/23/23 5/24/24 15/25/25
f 15/25/25 5/24/24 8/26/26
f 14/27/27 17/28/28 5/29/29
f 5/29/29 17/28/28 2/30/30
f 5/29/29 2/30/30 6/31/31
f 6/31/31 2/30/30 1/32/32
f 6/31/31 1/32/32 19/33/33
f 17/28/28 14/27/27 9/34/34
f 9/34/34 14/27/27 13/35/35
f 9/34/34 13/35/35 10/36/36
f 10/36/36 13/35/35 19/33/33
f 19/33/33 13/35/35 6/31/31
f 1/37/37 4/38/38 19/39/39
f 19/39/39 4/38/38 20/40/40
f 19/39/39 20/40/40 10/41/41
f 10/41/41 20/40/40 11/42/42
f 6/43/43 13/44/44 7/45/45
f 7/45/45 13/44/44 16/46/46
f 4/47/47 3/48/48 20/49/49
f 20/49/49 3/48/48 18/50/50
f 20/49/49 18/50/50 12/51/51
f 12/51/51 11/52/52 20/49/49
f 16/53/53 15/54/54 7/55/55
f 7/55/55 15/54/54 8/56/56
# 20 vertices
# 56 texture params
# 56 normals
# 36 facets

# 1 groups
